:SAMPLES-PER-SECOND 30
:FRAME-RANGE 1-2643
:FULLY-SPECIFIED
:DEGREES
2148
root  40.572 32.9161 -93.9637 167.677 -57.5123 -156.182
RightUpLeg  -55.8807 23.0164 -1.7739
RightLeg  54.4928 3.39032 4.70369
RightFoot  -11.4592 -0.0658718 11.8544
RightToes  5.38607e-012 1.2921e-014 -6.02303e-014
Spine  20.4044 -9.3138 6.739
Spine1  4.02867 -10.1202 10.3022
HEad  -20.688 37.047 -30.4345
LeftShoulder1  2.81219 -10.4699 -13.7008
LeftArm  -16.8853 -18.3385 -53.2411
LeftForeArm  23.0183 -1.09904 -6.75407
LeftHand  -0.11135 2.47905 4.01164
RightShoulder  0.859452 -0.792036 28.0658
RightArm  -12.0276 -0.636573 39.1148
RightForeArm  34.2127 19.3333 4.5206
RightHand  -0.322107 -3.59027 -20.2427
LeftUpLeg  -8.83156 10.4115 -6.75868
LeftLeg  68.6651 -2.02004 -4.91257
LeftFoot  -14.0946 -0.252954 -13.9678
LeftToes  -4.79707e-012 -5.93756e-011 -7.55542e-012
2149
root  38.9584 32.3311 -93.0992 162.905 -64.5352 -153.622
RightUpLeg  -53.6723 21.5115 -6.09346
RightLeg  60.7074 0.803337 1.04786
RightFoot  -17.9768 0.802717 15.8692
RightToes  5.38607e-012 1.2921e-014 -6.02303e-014
Spine  21.5912 -9.02139 8.36364
Spine1  4.59361 -9.2136 8.34671
HEad  -18.9334 31.6241 -29.7373
LeftShoulder1  2.93199 -10.1665 -15.1837
LeftArm  -17.4251 -17.6288 -56.5488
LeftForeArm  18.7089 -1.10263 -6.48373
LeftHand  -0.139826 2.81938 5.80891
RightShoulder  1.03906 -0.296599 28.471
RightArm  -16.2396 3.58184 40.508
RightForeArm  40.7481 15.0269 6.20488
RightHand  -0.332489 -3.5119 -20.0427
LeftUpLeg  -16.0507 6.10648 -0.295342
LeftLeg  86.4327 -0.24116 1.1922
LeftFoot  -16.567 -0.259531 -7.85053
LeftToes  -4.79707e-012 -5.93756e-011 -7.55542e-012
2150
root  37.501 32.0483 -92.0716 162.989 -69.6811 -154.771
RightUpLeg  -50.6433 18.7202 -10.7938
RightLeg  63.4441 0.5751 0.683954
RightFoot  -22.7632 1.76216 19.0157
RightToes  5.38607e-012 1.2921e-014 -6.02303e-014
Spine  22.968 -7.14333 8.12771
Spine1  3.95858 -6.99386 6.80944
HEad  -16.2017 26.5274 -25.4866
LeftShoulder1  2.93745 -9.98609 -15.5527
LeftArm  -17.6186 -14.7198 -58.3273
LeftForeArm  18.8272 -2.83427 -6.68642
LeftHand  -0.145198 2.76756 5.94686
RightShoulder  1.477 1.14036 27.2019
RightArm  -19.0853 8.35493 41.2604
RightForeArm  46.9758 10.9824 7.36834
RightHand  -0.310426 -3.66961 -20.3845
LeftUpLeg  -26.6688 2.75904 5.62935
LeftLeg  97.5073 -0.270682 -0.0599477
LeftFoot  -19.0598 -0.18303 -4.40504
LeftToes  -4.79707e-012 -5.93756e-011 -7.55542e-012
2151
root  35.847 31.9698 -91.0117 163.345 -72.8649 -156.684
RightUpLeg  -45.1479 16.8528 -14.2212
RightLeg  63.5928 0.853893 1.30531
RightFoot  -27.1598 2.76707 21.04
RightToes  5.38607e-012 1.2921e-014 -6.02303e-014
Spine  24.2423 -5.46396 7.52024
Spine1  3.02818 -4.74048 4.0963
HEad  -12.5043 24.2045 -22.4646
LeftShoulder1  2.86828 -9.22002 -16.4282
LeftArm  -16.5877 -10.1559 -56.583
LeftForeArm  19.5806 -5.3937 -7.54035
LeftHand  -0.152021 2.47336 5.66674
RightShoulder  1.6769 1.98049 25.6706
RightArm  -21.0291 13.9079 41.9041
RightForeArm  53.7476 8.73546 7.24394
RightHand  -0.301374 -3.79183 -21.2968
LeftUpLeg  -35.6059 3.31265 12.7826
LeftLeg  100.599 0.632333 -4.10847
LeftFoot  -20.9667 -0.112199 -2.82578
LeftToes  -4.79707e-012 -5.93756e-011 -7.55542e-012
2152
root  33.9938 32.2332 -89.8199 163.839 -77.5571 -158.317
RightUpLeg  -37.6815 13.2742 -17.7806
RightLeg  61.2528 0.455766 0.387701
RightFoot  -29.1467 3.62784 24.1095
RightToes  5.38607e-012 1.2921e-014 -6.02303e-014
Spine  24.338 -4.40519 5.69168
Spine1  1.72399 -3.87844 2.64598
HEad  -6.85816 21.2786 -17.8725
LeftShoulder1  2.56988 -7.83658 -16.611
LeftArm  -15.6296 -6.7121 -54.3769
LeftForeArm  19.7665 -4.98047 -7.91251
LeftHand  -0.142085 2.30489 4.998
RightShoulder  1.64287 2.13012 24.0959
RightArm  -23.9811 15.3727 42.896
RightForeArm  52.1838 9.73157 5.99963
RightHand  -0.296426 -3.82274 -21.3498
LeftUpLeg  -43.4774 6.02073 16.6711
LeftLeg  96.0937 0.365344 -4.55305
LeftFoot  -21.1125 -0.118754 -2.87034
LeftToes  -4.79707e-012 -5.93756e-011 -7.55542e-012
2153
root  31.9543 32.7449 -88.4332 161.298 -83.1799 -156.439
RightUpLeg  -28.1969 9.19273 -21.8393
RightLeg  55.3655 -0.743794 -1.57149
RightFoot  -27.8917 4.09673 28.9096
RightToes  5.38607e-012 1.2921e-014 -6.02303e-014
Spine  22.9672 -3.22957 4.02881
Spine1  0.95851 -3.19745 2.03902
HEad  -0.750904 15.4853 -11.7038
LeftShoulder1  2.29347 -6.81721 -16.1667
LeftArm  -13.9984 -4.87009 -52.9647
LeftForeArm  19.724 -4.19569 -8.41899
LeftHand  -0.123192 2.50035 4.52646
RightShoulder  1.57713 1.99561 23.589
RightArm  -26.6432 12.775 41.6814
RightForeArm  49.6414 10.2842 5.08902
RightHand  -0.333448 -3.65811 -21.8167
LeftUpLeg  -49.3743 10.1348 15.8557
LeftLeg  85.7407 -0.259843 0.462454
LeftFoot  -20.1732 -0.206534 -4.23904
LeftToes  -4.79707e-012 -5.93756e-011 -7.55542e-012
2154
root  29.6261 33.4327 -86.7256 115.867 -89.1196 -111.938
RightUpLeg  -16.8361 5.87645 -27.4604
RightLeg  47.5716 -1.27612 -1.82126
RightFoot  -21.4384 3.11933 35.8411
RightToes  5.38607e-012 1.2921e-014 -6.02303e-014
Spine  20.9039 -2.03345 2.29226
Spine1  0.880767 -2.75018 2.22733
HEad  4.60653 8.28892 -4.99245
LeftShoulder1  2.08663 -6.27962 -15.1966
LeftArm  -12.0826 -5.83087 -52.8531
LeftForeArm  23.2469 -2.85396 -8.96374
LeftHand  -0.0885328 3.32753 4.1467
RightShoulder  1.52943 1.75097 24.1048
RightArm  -28.5521 6.8309 39.0519
RightForeArm  50.7058 10.0112 4.52854
RightHand  -0.323164 -3.66933 -21.2561
LeftUpLeg  -51.4835 12.9397 10.9542
LeftLeg  72.7695 0.850853 4.16538
LeftFoot  -21.0264 -0.26709 -4.63883
LeftToes  -4.79707e-012 -5.93756e-011 -7.55542e-012
2155
root  27.1142 34.1118 -84.6588 34.8658 -86.1457 -31.7698
RightUpLeg  -9.29582 12.1898 -29.226
RightLeg  43.6731 -1.84024 -2.17888
RightFoot  -8.83738 -0.881621 36.3389
RightToes  5.38607e-012 1.2921e-014 -6.02303e-014
Spine  18.3954 -0.614052 4.66043
Spine1  0.916782 -1.02673 1.45609
HEad  8.67527 1.64647 1.19731
LeftShoulder1  2.02287 -6.29771 -14.4232
LeftArm  -10.7457 -8.7592 -54.0351
LeftForeArm  25.3116 -2.41218 -9.30445
LeftHand  -0.0753671 3.54299 3.71448
RightShoulder  1.59632 1.76387 25.4163
RightArm  -28.5618 -0.0455025 35.9102
RightForeArm  49.7493 7.67873 4.31787
RightHand  -0.27696 -3.91001 -21.0697
LeftUpLeg  -50.6814 16.3976 7.57576
LeftLeg  62.7918 2.01945 4.91929
LeftFoot  -20.7784 -0.257001 -4.62106
LeftToes  -4.79707e-012 -5.93756e-011 -7.55542e-012
2156
root  24.6609 34.588 -82.4732 40.0032 -83.072 -36.698
RightUpLeg  -10.1193 23.0924 -26.6576
RightLeg  49.772 -0.0251753 -0.384101
RightFoot  5.2198 -2.78575 19.2239
RightToes  5.38607e-012 1.2921e-014 -6.02303e-014
Spine  15.3363 -0.370607 6.02121
Spine1  1.26656 -0.613021 1.58338
HEad  10.2112 -0.637121 6.06672
LeftShoulder1  1.94827 -5.98495 -14.3199
LeftArm  -9.50033 -11.3905 -54.8046
LeftForeArm  25.5795 -4.14779 -9.68
LeftHand  -0.0862764 3.36694 4.08409
RightShoulder  1.53974 1.48246 26.1068
RightArm  -28.7684 -3.46178 36.4102
RightForeArm  51.7344 4.02886 3.55508
RightHand  -0.178356 -4.4487 -20.9084
LeftUpLeg  -48.4241 16.6281 5.06341
LeftLeg  54.9948 3.96679 6.57506
LeftFoot  -16.4998 -0.0497564 -3.29918
LeftToes  -4.79707e-012 -5.93756e-011 -7.55542e-012
2157
root  22.5935 34.3954 -80.8989 23.2059 -78.5821 -20.1117
RightUpLeg  -12.1917 27.3488 -24.9521
RightLeg  62.6322 7.63516 15.1547
RightFoot  2.55319 -1.38033 11.4369
RightToes  5.38607e-012 1.2921e-014 -6.02303e-014
Spine  14.167 -1.25626 -0.229508
Spine1  2.93024 -2.93042 3.27827
HEad  8.56782 -0.688771 8.97545
LeftShoulder1  2.01379 -6.15421 -14.6686
LeftArm  -6.84475 -17.3341 -55.5563
LeftForeArm  27.1623 -4.51991 -10.308
LeftHand  -0.0861934 3.41503 4.16863
RightShoulder  1.60775 1.77337 25.5913
RightArm  -29.9332 -6.59711 38.8574
RightForeArm  50.58 2.65618 2.87152
RightHand  -0.206954 -4.25961 -20.3317
LeftUpLeg  -46.9639 9.20863 3.08864
LeftLeg  56.2837 4.89187 8.37403
LeftFoot  -13.2595 0.122745 2.5737
LeftToes  -4.79707e-012 -5.93756e-011 -7.55542e-012
2158
root  20.6801 34.0467 -79.0895 12.5002 -74.926 -10.5134
RightUpLeg  -16.2139 24.2117 -25.3988
RightLeg  74.2687 5.94849 22.0777
RightFoot  -0.490249 -1.44332 15.0804
RightToes  5.38607e-012 1.2921e-014 -6.02303e-014
Spine  15.4567 -1.90275 -4.95539
Spine1  3.37334 -4.58112 4.57528
HEad  5.85684 -0.953217 10.6654
LeftShoulder1  2.32011 -7.44755 -14.9847
LeftArm  -3.58691 -24.8343 -57.6521
LeftForeArm  30.2527 -4.83979 -10.9506
LeftHand  -0.0905978 3.33939 3.86697
RightShoulder  1.43688 1.14803 26.2013
RightArm  -32.2299 -9.55702 40.8208
RightForeArm  49.5953 2.46166 1.90824
RightHand  -0.284522 -3.7943 -20.0752
LeftUpLeg  -43.6919 0.313864 0.715818
LeftLeg  60.6921 6.36631 12.6945
LeftFoot  -17.968 0.156561 0.841964
LeftToes  -4.79707e-012 -5.93756e-011 -7.55542e-012
2159
root  18.661 34.0189 -77.0257 12.9109 -73.3013 -11.4341
RightUpLeg  -22.7493 17.8941 -23.7669
RightLeg  81.0306 2.22112 15.5262
RightFoot  -4.3187 -0.844489 13.2262
RightToes  5.38607e-012 1.2921e-014 -6.02303e-014
Spine  15.8579 -2.72108 -6.00962
Spine1  4.03042 -5.36902 3.94141
HEad  4.0118 0.320685 10.4533
LeftShoulder1  2.50167 -8.20001 -15.1667
LeftArm  0.207427 -31.2561 -60.149
LeftForeArm  31.6306 -5.81432 -11.3728
LeftHand  -0.0792873 3.95502 5.02328
RightShoulder  1.33325 0.6617 27.5776
RightArm  -33.5506 -9.6837 41.2009
RightForeArm  50.1641 -0.568968 0.622264
RightHand  -0.320154 -3.59305 -20.1461
LeftUpLeg  -39.2947 -3.35478 -1.60891
LeftLeg  63.1988 7.3191 16.0231
LeftFoot  -23.9449 0.219821 0.688005
LeftToes  -4.79707e-012 -5.93756e-011 -7.55542e-012
2160
root  16.5968 34.0884 -74.7731 17.3774 -72.6916 -16.7577
RightUpLeg  -29.3279 12.1208 -18.9047
RightLeg  83.3215 0.73267 5.52036
RightFoot  -8.03096 -0.372155 10.9516
RightToes  5.38607e-012 1.2921e-014 -6.02303e-014
Spine  16.04 -3.50527 -6.11739
Spine1  4.18412 -6.24683 4.77816
HEad  4.90655 3.10378 7.62313
LeftShoulder1  2.58641 -8.68606 -14.9744
LeftArm  2.18122 -34.5045 -63.255
LeftForeArm  31.612 -7.70752 -10.9159
LeftHand  -0.0806917 3.89443 4.9462
RightShoulder  1.21603 0.339665 27.3006
RightArm  -34.0561 -10.6823 41.4917
RightForeArm  50.8552 -1.59518 0.180071
RightHand  -0.273985 -3.83395 -19.7893
LeftUpLeg  -33.4174 -3.2984 -3.44323
LeftLeg  63.7765 7.93779 17.6829
LeftFoot  -29.3733 0.40548 1.44014
LeftToes  -4.79707e-012 -5.93756e-011 -7.55542e-012
2161
root  14.3964 34.224 -72.3463 18.7002 -73.1556 -18.8958
RightUpLeg  -34.8317 8.6071 -14.142
RightLeg  80.7387 0.274785 0.0127503
RightFoot  -11.1639 -0.0892993 8.59817
RightToes  5.38607e-012 1.2921e-014 -6.02303e-014
Spine  15.9837 -4.22387 -6.80205
Spine1  3.97397 -7.0815 5.62831
HEad  7.06403 6.65108 4.67678
LeftShoulder1  2.56692 -9.07047 -14.0648
LeftArm  3.26194 -35.6005 -66.2006
LeftForeArm  29.7705 -9.17262 -10.3807
LeftHand  -0.10145 3.58732 5.56712
RightShoulder  1.16192 0.233168 26.7446
RightArm  -33.5345 -11.8538 40.9457
RightForeArm  48.944 -1.44903 0.494832
RightHand  -0.301694 -3.59481 -18.9494
LeftUpLeg  -25.7765 -1.55575 -6.58356
LeftLeg  61.6844 9.19154 18.4739
LeftFoot  -34.0681 0.690671 2.41108
LeftToes  -4.79707e-012 -5.93756e-011 -7.55542e-012
